<?xml version="1.0" standalone="no"?>
<!DOCTYPE svg PUBLIC "-//W3C//DTD SVG 20010904//EN"
 "http://www.w3.org/TR/2001/REC-SVG-20010904/DTD/svg10.dtd">
<svg version="1.0" xmlns="http://www.w3.org/2000/svg"
 width="80.000000pt" height="80.000000pt" viewBox="0 0 80.000000 80.000000"
 preserveAspectRatio="xMidYMid meet">
<metadata>
Created by potrace 1.11, written by Peter Selinger 2001-2013
</metadata>
<g transform="translate(0.000000,80.000000) scale(0.100000,-0.100000)"
fill="#000000" stroke="none">
<path d="M0 400 l0 -400 400 0 400 0 0 400 0 400 -400 0 -400 0 0 -400z m223
156 c55 -23 71 -50 75 -124 6 -118 -47 -166 -176 -160 l-67 3 -3 134 c-1 74 0
141 2 148 7 18 127 17 169 -1z m430 0 c55 -23 71 -50 75 -124 6 -118 -47 -166
-176 -160 l-67 3 -3 134 c-1 74 0 141 2 148 7 18 127 17 169 -1z m-238 -251
c0 -27 -3 -30 -30 -30 -21 0 -31 5 -33 18 -6 33 6 49 35 45 24 -3 28 -8 28
-33z"/>
<path d="M120 420 c0 -97 1 -100 23 -100 62 1 97 36 97 99 0 62 -37 101 -95
101 -25 0 -25 -1 -25 -100z"/>
<path d="M550 420 c0 -97 1 -100 23 -100 62 1 97 36 97 99 0 62 -37 101 -95
101 -25 0 -25 -1 -25 -100z"/>
</g>
</svg>
